<?xml version="1.0" encoding="UTF-8" standalone="no"?>
<svg xmlns="http://www.w3.org/2000/svg" version="1.1"
     width="569" height="168"
     viewBox="0 0 569.67 168.00">
  <line x1="12" y1="24" x2="156" y2="24" stroke="#2ca02c" stroke-width="2" /><line x1="12" y1="64" x2="156" y2="64" stroke="#2ca02c" stroke-width="2" /><line x1="12" y1="104" x2="156" y2="104" stroke="#2ca02c" stroke-width="2" /><line x1="12" y1="144" x2="156" y2="144" stroke="#2ca02c" stroke-width="2" /><line x1="24" y1="12" x2="24" y2="156" stroke="#2ca02c" stroke-width="2" /><line x1="64" y1="12" x2="64" y2="156" stroke="#2ca02c" stroke-width="2" /><line x1="104" y1="12" x2="104" y2="156" stroke="#2ca02c" stroke-width="2" /><line x1="144" y1="12" x2="144" y2="156" stroke="#2ca02c" stroke-width="2" />
  <circle cx="24" cy="24" r="4" fill="#2ca02c" /><circle cx="64" cy="24" r="4" fill="#2ca02c" /><circle cx="104" cy="24" r="4" fill="#2ca02c" /><circle cx="144" cy="24" r="4" fill="#2ca02c" /><circle cx="24" cy="64" r="4" fill="#2ca02c" /><circle cx="64" cy="64" r="4" fill="#2ca02c" /><circle cx="104" cy="64" r="4" fill="#2ca02c" /><circle cx="144" cy="64" r="4" fill="#2ca02c" /><circle cx="24" cy="104" r="4" fill="#2ca02c" /><circle cx="64" cy="104" r="4" fill="#2ca02c" /><circle cx="104" cy="104" r="4" fill="#2ca02c" /><circle cx="144" cy="104" r="4" fill="#2ca02c" /><circle cx="24" cy="144" r="4" fill="#2ca02c" /><circle cx="64" cy="144" r="4" fill="#2ca02c" /><circle cx="104" cy="144" r="4" fill="#2ca02c" /><circle cx="144" cy="144" r="4" fill="#2ca02c" />
  <rect x="64" y="24" width="40" height="120" fill="#2ca02c" /><rect x="24" y="64" width="120" height="40" fill="#2ca02c" />
  
<g transform="translate(0,168) scale(1,-1)">
  <path d="M196.00,115.11 L206.53,115.11 L206.53,82.23 L225.01,82.23 L225.01,74.28 L196.00,74.28 L196.00,115.11 Z M231.68,115.11 L260.09,115.11 L260.09,107.14 L242.21,107.14 L242.21,99.55 L259.03,99.55 L259.03,91.59 L242.21,91.59 L242.21,82.23 L260.69,82.23 L260.69,74.28 L231.68,74.28 L231.68,115.11 Z M246.83,126.09 L254.57,126.09 L246.78,118.87 L241.42,118.87 L246.83,126.09 Z M269.94,115.11 L280.46,115.11 L280.46,100.21 L295.64,115.11 L307.86,115.11 L288.20,95.77 L309.88,74.28 L296.70,74.28 L280.46,90.36 L280.46,74.28 L269.94,74.28 L269.94,115.11 Z M338.10,81.72 L321.64,81.72 L319.05,74.28 L308.46,74.28 L323.58,115.11 L336.13,115.11 L351.25,74.28 L340.68,74.28 L338.10,81.72 Z M324.27,89.29 L335.45,89.29 L329.87,105.53 L324.27,89.29 Z M330.58,126.09 L338.32,126.09 L330.53,118.87 L325.17,118.87 L330.58,126.09 Z M371.63,97.00 Q374.93,97.00 376.37,98.23 Q377.80,99.46 377.80,102.28 Q377.80,105.07 376.37,106.27 Q374.93,107.48 371.63,107.48 L367.20,107.48 L367.20,97.00 L371.63,97.00 Z M367.20,89.73 L367.20,74.28 L356.67,74.28 L356.67,115.11 L372.75,115.11 Q380.81,115.11 384.57,112.39 Q388.33,109.69 388.33,103.84 Q388.33,99.79 386.37,97.20 Q384.42,94.60 380.48,93.36 Q382.64,92.87 384.35,91.13 Q386.06,89.40 387.81,85.87 L393.53,74.28 L382.32,74.28 L377.34,84.42 Q375.83,87.48 374.29,88.60 Q372.75,89.73 370.17,89.73 L367.20,89.73 Z M399.79,115.11 L411.54,115.11 L426.39,87.11 L426.39,115.11 L436.38,115.11 L436.38,74.28 L424.62,74.28 L409.77,102.28 L409.77,74.28 L399.79,74.28 L399.79,115.11 Z M446.66,115.11 L475.06,115.11 L475.06,107.14 L457.19,107.14 L457.19,99.55 L474.00,99.55 L474.00,91.59 L457.19,91.59 L457.19,82.23 L475.67,82.23 L475.67,74.28 L446.66,74.28 L446.66,115.11 Z M480.04,115.11 L517.67,115.11 L517.67,107.14 L504.13,107.14 L504.13,74.28 L493.60,74.28 L493.60,107.14 L480.04,107.14 L480.04,115.11 Z" fill="#2ca02c" />
  <path d="M208.94,61.29 L208.94,59.00 Q207.84,60.02 206.60,60.53 Q205.36,61.03 203.96,61.03 Q201.21,61.03 199.75,59.35 Q198.29,57.67 198.29,54.49 Q198.29,51.32 199.75,49.64 Q201.21,47.96 203.96,47.96 Q205.36,47.96 206.60,48.46 Q207.84,48.97 208.94,49.99 L208.94,47.72 Q207.80,46.95 206.52,46.56 Q205.25,46.17 203.83,46.17 Q200.19,46.17 198.09,48.40 Q196.00,50.63 196.00,54.49 Q196.00,58.36 198.09,60.58 Q200.19,62.82 203.83,62.82 Q205.27,62.82 206.54,62.43 Q207.82,62.05 208.94,61.29 Z M222.20,53.75 L222.20,46.49 L220.23,46.49 L220.23,53.69 Q220.23,55.39 219.56,56.24 Q218.89,57.09 217.56,57.09 Q215.96,57.09 215.04,56.07 Q214.11,55.05 214.11,53.29 L214.11,46.49 L212.12,46.49 L212.12,63.20 L214.11,63.20 L214.11,56.65 Q214.82,57.73 215.78,58.27 Q216.74,58.81 218.00,58.81 Q220.08,58.81 221.14,57.52 Q222.20,56.24 222.20,53.75 Z M231.15,45.37 Q230.31,43.22 229.52,42.57 Q228.72,41.91 227.39,41.91 L225.81,41.91 L225.81,43.57 L226.97,43.57 Q227.79,43.57 228.24,43.95 Q228.69,44.34 229.24,45.78 L229.59,46.68 L224.73,58.52 L226.82,58.52 L230.58,49.11 L234.34,58.52 L236.44,58.52 L231.15,45.37 Z M241.12,61.94 L241.12,58.52 L245.19,58.52 L245.19,56.98 L241.12,56.98 L241.12,50.45 Q241.12,48.98 241.52,48.56 Q241.92,48.14 243.16,48.14 L245.19,48.14 L245.19,46.49 L243.16,46.49 Q240.87,46.49 240.00,47.34 Q239.13,48.20 239.13,50.45 L239.13,56.98 L237.68,56.98 L237.68,58.52 L239.13,58.52 L239.13,61.94 L241.12,61.94 Z M254.76,56.67 Q254.43,56.86 254.03,56.95 Q253.64,57.05 253.17,57.05 Q251.49,57.05 250.60,55.96 Q249.70,54.87 249.70,52.83 L249.70,46.49 L247.71,46.49 L247.71,58.52 L249.70,58.52 L249.70,56.65 Q250.33,57.74 251.32,58.27 Q252.32,58.81 253.75,58.81 Q253.96,58.81 254.20,58.78 Q254.45,58.76 254.75,58.70 L254.76,56.67 Z M262.30,52.53 Q259.91,52.53 258.98,51.99 Q258.06,51.44 258.06,50.12 Q258.06,49.07 258.75,48.45 Q259.45,47.83 260.64,47.83 Q262.28,47.83 263.28,49.00 Q264.27,50.16 264.27,52.09 L264.27,52.53 L262.30,52.53 Z M266.25,53.35 L266.25,46.49 L264.27,46.49 L264.27,48.31 Q263.59,47.22 262.58,46.70 Q261.57,46.17 260.11,46.17 Q258.26,46.17 257.17,47.21 Q256.08,48.25 256.08,49.99 Q256.08,52.02 257.44,53.05 Q258.80,54.08 261.50,54.08 L264.27,54.08 L264.27,54.28 Q264.27,55.64 263.37,56.39 Q262.47,57.13 260.85,57.13 Q259.82,57.13 258.84,56.89 Q257.87,56.64 256.96,56.14 L256.96,57.97 Q258.05,58.39 259.07,58.60 Q260.09,58.81 261.06,58.81 Q263.67,58.81 264.96,57.45 Q266.25,56.10 266.25,53.35 Z M262.63,64.08 L264.77,64.08 L261.27,60.04 L259.63,60.04 L262.63,64.08 Z M284.98,58.16 L284.98,56.29 Q284.14,56.72 283.24,56.94 Q282.34,57.15 281.37,57.15 Q279.90,57.15 279.16,56.70 Q278.43,56.25 278.43,55.35 Q278.43,54.66 278.95,54.27 Q279.48,53.88 281.07,53.52 L281.75,53.37 Q283.85,52.92 284.74,52.10 Q285.62,51.28 285.62,49.81 Q285.62,48.13 284.30,47.15 Q282.97,46.17 280.65,46.17 Q279.68,46.17 278.64,46.36 Q277.59,46.55 276.43,46.93 L276.43,48.97 Q277.53,48.40 278.59,48.11 Q279.65,47.83 280.69,47.83 Q282.09,47.83 282.84,48.31 Q283.59,48.79 283.59,49.66 Q283.59,50.46 283.05,50.89 Q282.51,51.32 280.67,51.72 L279.98,51.88 Q278.15,52.27 277.33,53.07 Q276.51,53.87 276.51,55.26 Q276.51,56.96 277.72,57.88 Q278.92,58.81 281.13,58.81 Q282.23,58.81 283.19,58.65 Q284.16,58.49 284.98,58.16 Z M291.24,64.08 L293.38,64.08 L289.88,60.04 L288.23,60.04 L291.24,64.08 Z M288.77,58.52 L290.75,58.52 L290.75,46.49 L288.77,46.49 L288.77,58.52 Z M289.76,58.81 L289.76,58.81 Z M296.84,61.94 L296.84,58.52 L300.91,58.52 L300.91,56.98 L296.84,56.98 L296.84,50.45 Q296.84,48.98 297.24,48.56 Q297.64,48.14 298.88,48.14 L300.91,48.14 L300.91,46.49 L298.88,46.49 Q296.59,46.49 295.72,47.34 Q294.85,48.20 294.85,50.45 L294.85,56.98 L293.40,56.98 L293.40,58.52 L294.85,58.52 L294.85,61.94 L296.84,61.94 Z M298.89,64.28 L301.03,64.28 L299.77,60.24 L298.12,60.24 L298.89,64.28 Z M318.17,58.16 L318.17,56.29 Q317.34,56.72 316.43,56.94 Q315.53,57.15 314.56,57.15 Q313.09,57.15 312.35,56.70 Q311.62,56.25 311.62,55.35 Q311.62,54.66 312.14,54.27 Q312.67,53.88 314.26,53.52 L314.94,53.37 Q317.04,52.92 317.93,52.10 Q318.82,51.28 318.82,49.81 Q318.82,48.13 317.49,47.15 Q316.16,46.17 313.84,46.17 Q312.88,46.17 311.83,46.36 Q310.78,46.55 309.62,46.93 L309.62,48.97 Q310.72,48.40 311.78,48.11 Q312.84,47.83 313.89,47.83 Q315.28,47.83 316.03,48.31 Q316.79,48.79 316.79,49.66 Q316.79,50.46 316.24,50.89 Q315.70,51.32 313.86,51.72 L313.18,51.88 Q311.34,52.27 310.52,53.07 Q309.71,53.87 309.71,55.26 Q309.71,56.96 310.91,57.88 Q312.11,58.81 314.33,58.81 Q315.42,58.81 316.39,58.65 Q317.36,58.49 318.17,58.16 Z M323.88,48.29 L323.88,41.91 L321.89,41.91 L321.89,58.52 L323.88,58.52 L323.88,56.69 Q324.50,57.77 325.45,58.28 Q326.40,58.81 327.72,58.81 Q329.91,58.81 331.28,57.07 Q332.65,55.33 332.65,52.49 Q332.65,49.66 331.28,47.91 Q329.91,46.17 327.72,46.17 Q326.40,46.17 325.45,46.70 Q324.50,47.22 323.88,48.29 Z M330.60,52.49 Q330.60,54.67 329.71,55.91 Q328.81,57.15 327.24,57.15 Q325.67,57.15 324.77,55.91 Q323.88,54.67 323.88,52.49 Q323.88,50.31 324.77,49.07 Q325.67,47.83 327.24,47.83 Q328.81,47.83 329.71,49.07 Q330.60,50.31 330.60,52.49 Z M340.59,57.13 Q339.00,57.13 338.08,55.89 Q337.15,54.65 337.15,52.49 Q337.15,50.33 338.07,49.09 Q338.99,47.85 340.59,47.85 Q342.17,47.85 343.09,49.10 Q344.02,50.34 344.02,52.49 Q344.02,54.63 343.09,55.88 Q342.17,57.13 340.59,57.13 Z M340.59,58.81 Q343.17,58.81 344.64,57.13 Q346.11,55.46 346.11,52.49 Q346.11,49.54 344.64,47.86 Q343.17,46.17 340.59,46.17 Q338.00,46.17 336.53,47.86 Q335.07,49.54 335.07,52.49 Q335.07,55.46 336.53,57.13 Q338.00,58.81 340.59,58.81 Z M349.39,58.52 L351.37,58.52 L351.37,46.27 Q351.37,43.97 350.49,42.94 Q349.62,41.91 347.67,41.91 L346.92,41.91 L346.92,43.59 L347.45,43.59 Q348.57,43.59 348.98,44.11 Q349.39,44.63 349.39,46.27 L349.39,58.52 Z M349.39,63.20 L351.37,63.20 L351.37,60.70 L349.39,60.70 L349.39,63.20 Z M355.30,51.23 L355.30,58.52 L357.27,58.52 L357.27,51.31 Q357.27,49.60 357.94,48.75 Q358.60,47.89 359.94,47.89 Q361.54,47.89 362.47,48.91 Q363.40,49.93 363.40,51.70 L363.40,58.52 L365.37,58.52 L365.37,46.49 L363.40,46.49 L363.40,48.34 Q362.68,47.24 361.73,46.71 Q360.78,46.17 359.52,46.17 Q357.45,46.17 356.37,47.46 Q355.30,48.75 355.30,51.23 Z M360.27,58.81 L360.27,58.81 Z M369.44,58.52 L371.42,58.52 L371.42,46.27 Q371.42,43.97 370.54,42.94 Q369.67,41.91 367.73,41.91 L366.97,41.91 L366.97,43.59 L367.50,43.59 Q368.63,43.59 369.04,44.11 Q369.44,44.63 369.44,46.27 L369.44,58.52 Z M369.44,63.20 L371.42,63.20 L371.42,60.70 L369.44,60.70 L369.44,63.20 Z M378.03,64.08 L380.17,64.08 L376.67,60.04 L375.02,60.04 L378.03,64.08 Z M375.56,58.52 L377.53,58.52 L377.53,46.49 L375.56,46.49 L375.56,58.52 Z M376.55,58.81 L376.55,58.81 Z M390.33,58.06 L390.33,56.21 Q389.49,56.67 388.65,56.90 Q387.80,57.13 386.95,57.13 Q385.02,57.13 383.95,55.91 Q382.89,54.70 382.89,52.49 Q382.89,50.29 383.95,49.07 Q385.02,47.85 386.95,47.85 Q387.80,47.85 388.65,48.08 Q389.49,48.31 390.33,48.78 L390.33,46.95 Q389.50,46.56 388.61,46.37 Q387.73,46.17 386.73,46.17 Q384.01,46.17 382.41,47.88 Q380.81,49.59 380.81,52.49 Q380.81,55.43 382.43,57.12 Q384.04,58.81 386.86,58.81 Q387.77,58.81 388.64,58.62 Q389.51,58.43 390.33,58.06 Z M396.24,64.08 L398.37,64.08 L394.87,60.04 L393.23,60.04 L396.24,64.08 Z M393.76,58.52 L395.74,58.52 L395.74,46.49 L393.76,46.49 L393.76,58.52 Z M394.75,58.81 L394.75,58.81 Z M406.87,63.20 L408.85,63.20 L408.85,46.49 L406.87,46.49 L406.87,63.20 Z M423.27,53.00 L423.27,52.03 L414.19,52.03 Q414.32,49.99 415.42,48.92 Q416.52,47.85 418.48,47.85 Q419.62,47.85 420.69,48.13 Q421.76,48.41 422.81,48.97 L422.81,47.10 Q421.75,46.65 420.63,46.41 Q419.51,46.17 418.37,46.17 Q415.48,46.17 413.80,47.85 Q412.12,49.53 412.12,52.39 Q412.12,55.34 413.72,57.07 Q415.31,58.81 418.02,58.81 Q420.45,58.81 421.86,57.24 Q423.27,55.68 423.27,53.00 Z M421.30,53.58 Q421.28,55.20 420.39,56.16 Q419.50,57.13 418.04,57.13 Q416.39,57.13 415.40,56.20 Q414.40,55.26 414.25,53.56 L421.30,53.58 Z M419.39,64.08 L421.52,64.08 L418.03,60.04 L416.38,60.04 L419.39,64.08 Z M426.44,63.20 L428.43,63.20 L428.43,53.33 L434.33,58.52 L436.85,58.52 L430.47,52.89 L437.12,46.49 L434.54,46.49 L428.43,52.36 L428.43,46.49 L426.44,46.49 L426.44,63.20 Z M444.34,52.53 Q441.95,52.53 441.02,51.99 Q440.10,51.44 440.10,50.12 Q440.10,49.07 440.79,48.45 Q441.49,47.83 442.67,47.83 Q444.32,47.83 445.31,49.00 Q446.31,50.16 446.31,52.09 L446.31,52.53 L444.34,52.53 Z M448.28,53.35 L448.28,46.49 L446.31,46.49 L446.31,48.31 Q445.63,47.22 444.62,46.70 Q443.61,46.17 442.15,46.17 Q440.30,46.17 439.21,47.21 Q438.12,48.25 438.12,49.99 Q438.12,52.02 439.48,53.05 Q440.84,54.08 443.53,54.08 L446.31,54.08 L446.31,54.28 Q446.31,55.64 445.41,56.39 Q444.51,57.13 442.89,57.13 Q441.86,57.13 440.88,56.89 Q439.90,56.64 439.00,56.14 L439.00,57.97 Q440.09,58.39 441.11,58.60 Q442.13,58.81 443.09,58.81 Q445.71,58.81 447.00,57.45 Q448.28,56.10 448.28,53.35 Z M444.67,64.08 L446.81,64.08 L443.31,60.04 L441.66,60.04 L444.67,64.08 Z M459.33,56.67 Q458.99,56.86 458.60,56.95 Q458.21,57.05 457.74,57.05 Q456.06,57.05 455.16,55.96 Q454.27,54.87 454.27,52.83 L454.27,46.49 L452.28,46.49 L452.28,58.52 L454.27,58.52 L454.27,56.65 Q454.89,57.74 455.89,58.27 Q456.89,58.81 458.32,58.81 Q458.52,58.81 458.77,58.78 Q459.02,58.76 459.32,58.70 L459.33,56.67 Z M471.02,53.75 L471.02,46.49 L469.04,46.49 L469.04,53.69 Q469.04,55.39 468.37,56.24 Q467.71,57.09 466.38,57.09 Q464.77,57.09 463.85,56.07 Q462.93,55.05 462.93,53.29 L462.93,46.49 L460.94,46.49 L460.94,58.52 L462.93,58.52 L462.93,56.65 Q463.64,57.73 464.60,58.27 Q465.56,58.81 466.82,58.81 Q468.89,58.81 469.95,57.52 Q471.02,56.24 471.02,53.75 Z M479.96,45.37 Q479.13,43.22 478.33,42.57 Q477.54,41.91 476.21,41.91 L474.62,41.91 L474.62,43.57 L475.79,43.57 Q476.60,43.57 477.05,43.95 Q477.50,44.34 478.05,45.78 L478.41,46.68 L473.54,58.52 L475.63,58.52 L479.40,49.11 L483.16,58.52 L485.25,58.52 L479.96,45.37 Z" fill="#111111" />
</g>

</svg>
